<mxfile host="app.diagrams.net" agent="Mozilla/5.0 (Windows NT 10.0; Win64; x64) AppleWebKit/537.36 (KHTML, like Gecko) Chrome/140.0.0.0 Safari/537.36" version="28.2.3">
  <diagram name="Page-1" id="a5GH46k8o3_Prmu6Knfj">
    <mxGraphModel dx="786" dy="417" grid="1" gridSize="10" guides="1" tooltips="1" connect="1" arrows="1" fold="1" page="1" pageScale="1" pageWidth="850" pageHeight="1100" math="0" shadow="0">
      <root>
        <mxCell id="0" />
        <mxCell id="1" parent="0" />
        <mxCell id="rMlL0-UmWmyV-oaWyMIJ-23" style="edgeStyle=orthogonalEdgeStyle;rounded=0;orthogonalLoop=1;jettySize=auto;html=1;entryX=0.5;entryY=0;entryDx=0;entryDy=0;" edge="1" parent="1" source="rMlL0-UmWmyV-oaWyMIJ-1" target="rMlL0-UmWmyV-oaWyMIJ-3">
          <mxGeometry relative="1" as="geometry" />
        </mxCell>
        <mxCell id="rMlL0-UmWmyV-oaWyMIJ-1" value="Bắt đầu" style="ellipse;whiteSpace=wrap;html=1;" vertex="1" parent="1">
          <mxGeometry x="320" y="10" width="120" height="80" as="geometry" />
        </mxCell>
        <mxCell id="rMlL0-UmWmyV-oaWyMIJ-6" style="edgeStyle=orthogonalEdgeStyle;rounded=0;orthogonalLoop=1;jettySize=auto;html=1;" edge="1" parent="1" source="rMlL0-UmWmyV-oaWyMIJ-3" target="rMlL0-UmWmyV-oaWyMIJ-7">
          <mxGeometry relative="1" as="geometry">
            <mxPoint x="280" y="440" as="targetPoint" />
          </mxGeometry>
        </mxCell>
        <mxCell id="rMlL0-UmWmyV-oaWyMIJ-3" value="Sinh viên nhập điểm" style="shape=parallelogram;perimeter=parallelogramPerimeter;whiteSpace=wrap;html=1;fixedSize=1;" vertex="1" parent="1">
          <mxGeometry x="170" y="200" width="140" height="60" as="geometry" />
        </mxCell>
        <mxCell id="rMlL0-UmWmyV-oaWyMIJ-9" style="edgeStyle=orthogonalEdgeStyle;rounded=0;orthogonalLoop=1;jettySize=auto;html=1;entryX=0;entryY=0.5;entryDx=0;entryDy=0;" edge="1" parent="1" source="rMlL0-UmWmyV-oaWyMIJ-7" target="rMlL0-UmWmyV-oaWyMIJ-15">
          <mxGeometry relative="1" as="geometry">
            <mxPoint x="500" y="550" as="targetPoint" />
            <Array as="points">
              <mxPoint x="380" y="380" />
              <mxPoint x="380" y="460" />
            </Array>
          </mxGeometry>
        </mxCell>
        <mxCell id="rMlL0-UmWmyV-oaWyMIJ-10" style="edgeStyle=orthogonalEdgeStyle;rounded=0;orthogonalLoop=1;jettySize=auto;html=1;" edge="1" parent="1" source="rMlL0-UmWmyV-oaWyMIJ-7">
          <mxGeometry relative="1" as="geometry">
            <mxPoint x="240" y="620" as="targetPoint" />
          </mxGeometry>
        </mxCell>
        <mxCell id="rMlL0-UmWmyV-oaWyMIJ-7" value="Kiểm tra dữ liệu hợp lệ" style="rhombus;whiteSpace=wrap;html=1;" vertex="1" parent="1">
          <mxGeometry x="145" y="340" width="190" height="80" as="geometry" />
        </mxCell>
        <mxCell id="rMlL0-UmWmyV-oaWyMIJ-11" value="Đúng" style="text;html=1;align=center;verticalAlign=middle;whiteSpace=wrap;rounded=0;" vertex="1" parent="1">
          <mxGeometry x="230" y="450" width="60" height="30" as="geometry" />
        </mxCell>
        <mxCell id="rMlL0-UmWmyV-oaWyMIJ-12" value="Sai" style="text;html=1;align=center;verticalAlign=middle;whiteSpace=wrap;rounded=0;" vertex="1" parent="1">
          <mxGeometry x="410" y="430" width="60" height="30" as="geometry" />
        </mxCell>
        <mxCell id="rMlL0-UmWmyV-oaWyMIJ-17" style="edgeStyle=orthogonalEdgeStyle;rounded=0;orthogonalLoop=1;jettySize=auto;html=1;" edge="1" parent="1" source="rMlL0-UmWmyV-oaWyMIJ-14">
          <mxGeometry relative="1" as="geometry">
            <mxPoint x="237.5" y="780" as="targetPoint" />
          </mxGeometry>
        </mxCell>
        <mxCell id="rMlL0-UmWmyV-oaWyMIJ-14" value="Xử lý điểm:Tính TB,xếp loại điểm" style="rounded=1;whiteSpace=wrap;html=1;" vertex="1" parent="1">
          <mxGeometry x="180" y="540" width="120" height="60" as="geometry" />
        </mxCell>
        <mxCell id="rMlL0-UmWmyV-oaWyMIJ-16" style="edgeStyle=orthogonalEdgeStyle;rounded=0;orthogonalLoop=1;jettySize=auto;html=1;entryX=1;entryY=0.75;entryDx=0;entryDy=0;" edge="1" parent="1" source="rMlL0-UmWmyV-oaWyMIJ-15" target="rMlL0-UmWmyV-oaWyMIJ-3">
          <mxGeometry relative="1" as="geometry">
            <mxPoint x="430" y="240" as="targetPoint" />
            <Array as="points">
              <mxPoint x="560" y="240" />
              <mxPoint x="296" y="240" />
            </Array>
          </mxGeometry>
        </mxCell>
        <mxCell id="rMlL0-UmWmyV-oaWyMIJ-15" value="Thông báo lỗi và nhập lại" style="rounded=1;whiteSpace=wrap;html=1;" vertex="1" parent="1">
          <mxGeometry x="500" y="430" width="120" height="60" as="geometry" />
        </mxCell>
        <mxCell id="rMlL0-UmWmyV-oaWyMIJ-20" style="edgeStyle=orthogonalEdgeStyle;rounded=0;orthogonalLoop=1;jettySize=auto;html=1;entryX=0.5;entryY=0;entryDx=0;entryDy=0;" edge="1" parent="1" source="rMlL0-UmWmyV-oaWyMIJ-19" target="rMlL0-UmWmyV-oaWyMIJ-22">
          <mxGeometry relative="1" as="geometry">
            <mxPoint x="240" y="920" as="targetPoint" />
          </mxGeometry>
        </mxCell>
        <mxCell id="rMlL0-UmWmyV-oaWyMIJ-19" value="Lưu trữ vào CSDL" style="rounded=1;whiteSpace=wrap;html=1;" vertex="1" parent="1">
          <mxGeometry x="180" y="710" width="120" height="60" as="geometry" />
        </mxCell>
        <mxCell id="rMlL0-UmWmyV-oaWyMIJ-25" style="edgeStyle=orthogonalEdgeStyle;rounded=0;orthogonalLoop=1;jettySize=auto;html=1;" edge="1" parent="1" source="rMlL0-UmWmyV-oaWyMIJ-22" target="rMlL0-UmWmyV-oaWyMIJ-26">
          <mxGeometry relative="1" as="geometry">
            <mxPoint x="235" y="970" as="targetPoint" />
          </mxGeometry>
        </mxCell>
        <mxCell id="rMlL0-UmWmyV-oaWyMIJ-22" value="Xuất kết quả cho sinh viên" style="shape=parallelogram;perimeter=parallelogramPerimeter;whiteSpace=wrap;html=1;fixedSize=1;" vertex="1" parent="1">
          <mxGeometry x="145" y="830" width="180" height="60" as="geometry" />
        </mxCell>
        <mxCell id="rMlL0-UmWmyV-oaWyMIJ-24" style="edgeStyle=orthogonalEdgeStyle;rounded=0;orthogonalLoop=1;jettySize=auto;html=1;exitX=0.5;exitY=1;exitDx=0;exitDy=0;" edge="1" parent="1" source="rMlL0-UmWmyV-oaWyMIJ-22" target="rMlL0-UmWmyV-oaWyMIJ-22">
          <mxGeometry relative="1" as="geometry" />
        </mxCell>
        <mxCell id="rMlL0-UmWmyV-oaWyMIJ-26" value="" style="ellipse;whiteSpace=wrap;html=1;" vertex="1" parent="1">
          <mxGeometry x="175" y="960" width="120" height="80" as="geometry" />
        </mxCell>
      </root>
    </mxGraphModel>
  </diagram>
</mxfile>
